<svg xmlns="http://www.w3.org/2000/svg" viewBox="0 0 69 69" fill="none">
  <path d="M62.7687 0L14.8363 0C11.69 0 9.13 2.56001 9.13 5.70625V55.9212H1.14125C0.510995 55.9212 0 56.4317 0 57.0625L0 62.7687C0 65.915 2.56001 68.475 5.70625 68.475H53.6388C56.785 68.475 59.345 65.915 59.345 62.7687V19.4013H67.3337C67.964 19.4013 68.475 18.8908 68.475 18.26V5.70625C68.475 2.56001 65.915 0 62.7687 0ZM5.70625 66.1925C3.81828 66.1925 2.2825 64.6567 2.2825 62.7687V58.2038H47.9325V62.7687C47.9325 64.0527 48.3588 65.2385 49.0765 66.1925H5.70625ZM57.0625 62.7687C57.0625 64.6567 55.5267 66.1925 53.6388 66.1925C51.7508 66.1925 50.215 64.6567 50.215 62.7687V57.0625C50.215 56.4317 49.704 55.9212 49.0737 55.9212H11.4125V5.70625C11.4125 3.81828 12.9483 2.2825 14.8363 2.2825H58.2065C58.1735 2.32638 58.1497 2.37695 58.1179 2.42181C58.0508 2.51655 57.9928 2.61594 57.9315 2.71478C57.8122 2.90697 57.7038 3.10444 57.6076 3.3109C57.5557 3.42229 57.5064 3.53324 57.4616 3.64831C57.3759 3.86836 57.3084 4.09536 57.2502 4.3276C57.2234 4.43479 57.1902 4.53844 57.1695 4.64795C57.1045 4.99192 57.0625 5.34362 57.0625 5.70625V18.26V62.7687ZM66.1925 17.1187H59.345V5.70625C59.345 3.81828 60.8808 2.2825 62.7687 2.2825C64.6567 2.2825 66.1925 3.81828 66.1925 5.70625V17.1187Z" fill="currentColor"/>
</svg>