<svg xmlns="http://www.w3.org/2000/svg" viewBox="0 0 81 72" fill="none">
  <path d="M79.6495 8.80092C78.5814 7.40029 77.0995 6.49434 75.3707 6.32731L60.1511 4.18455L30.7771 0.0629356C27.2392 -0.431786 23.9483 2.04179 23.3709 5.66552L23.124 7.31353L14.8134 7.56089C11.2755 7.72473 8.56188 10.6095 8.56188 14.0694L5.35441 14.6477C1.81651 15.2259 -0.4865 18.5219 0.0876305 22.1456L7.82098 66.6448C8.31494 69.8572 11.0285 72 14.2392 72C14.5696 72 14.9802 72 15.3907 71.9165L58.0924 64.4185L61.7138 64.335C62.7819 64.2515 63.8532 63.9238 64.6743 63.429L67.3077 63.7599C67.638 63.8434 67.9652 63.8434 68.2956 63.8434C69.6107 63.8434 70.9289 63.4322 72.0805 62.6066C73.4789 61.5369 74.4668 59.9692 74.7138 58.2376L80.9653 13.574C81.1289 11.9292 80.7183 10.2009 79.6502 8.80024L79.6495 8.80092ZM29.7883 2.04179C30.0353 2.04179 30.1989 2.04179 30.4459 2.12531L58.8322 6.0799L56.1154 25.2813V25.3648V25.4483L51.3426 59.5647L22.9563 55.6101C21.8049 55.4462 20.7335 54.868 19.9958 53.8785C19.2548 52.8891 19.0079 51.7358 19.0912 50.5825L25.3427 5.91889C25.7565 3.6091 27.5655 2.04179 29.7883 2.04179ZM14.8127 9.54297L22.793 9.29561L17.0323 50.168C16.7854 51.8995 17.2793 53.6278 18.2672 55.0285C19.3354 56.4291 20.8172 57.3351 22.546 57.5021L57.0201 62.3627L16.6249 63.5995C14.1551 63.683 12.0991 61.7876 12.0189 59.314L10.6204 14.1561C10.537 11.6825 12.3461 9.70679 14.8127 9.54297ZM14.9795 69.944C12.5097 70.3552 10.2067 68.7908 9.79611 66.3171L2.06276 21.8179C1.6522 19.3443 3.21423 17.0377 5.68409 16.6265L8.56443 16.1318L9.87954 59.478C10.0431 63.0213 12.9235 65.7391 16.4613 65.7391H16.6249L43.6128 64.9135L14.9795 69.944ZM72.6536 57.997C72.49 59.2338 71.8293 60.3036 70.8446 60.9622C69.8567 61.7043 68.7052 61.9516 67.5537 61.7878L53.3187 59.8089L58.008 26.6819L76.6853 29.3193L72.6536 57.997ZM78.9083 13.3309L76.9325 27.2574L58.2552 24.62L60.8052 6.32492L75.0402 8.30707C76.1917 8.47091 77.263 9.04915 78.0008 10.0386C78.7449 11.0248 79.0718 12.1777 78.9083 13.3309Z" fill="currentColor"/>
</svg>